<svg id="svg" version="1.1" width="400" height="400" viewBox="0 0 400 400" xmlns="http://www.w3.org/2000/svg" xmlns:xlink="http://www.w3.org/1999/xlink" ><g id="svgg"><path id="path0" d="M0.000 200.000 L 0.000 400.000 200.000 400.000 L 400.000 400.000 400.000 200.000 L 400.000 0.000 200.000 0.000 L 0.000 0.000 0.000 200.000 M268.600 45.103 C 269.260 45.331,270.880 45.820,272.200 46.189 C 276.883 47.500,283.792 50.960,287.448 53.824 C 292.006 57.394,292.724 57.816,290.204 55.447 C 288.887 54.207,287.492 53.093,287.104 52.970 C 286.717 52.847,286.400 52.574,286.400 52.363 C 286.400 51.209,293.788 56.258,298.122 60.373 C 331.482 92.050,307.400 148.030,261.364 145.815 C 254.981 145.508,255.011 145.489,255.285 149.759 L 255.474 152.710 253.758 152.904 C 250.439 153.278,250.127 153.056,249.742 150.061 C 249.433 147.659,249.393 147.952,249.333 153.075 C 249.139 169.477,241.683 183.323,227.778 193.103 C 220.689 198.090,206.240 202.308,199.133 201.467 C 196.521 201.157,196.341 200.950,195.072 196.800 C 192.407 188.082,186.602 179.413,179.812 174.009 C 177.188 171.921,176.075 171.340,177.690 172.900 C 184.486 179.466,189.587 188.814,191.607 198.400 C 192.001 200.270,192.340 201.509,192.362 201.154 C 192.404 200.445,194.668 200.639,196.172 201.480 C 197.426 202.182,195.118 203.495,193.622 202.931 L 192.526 202.517 192.513 208.758 C 192.486 221.956,188.178 233.198,179.568 242.540 C 177.297 245.003,170.881 250.400,170.223 250.400 C 170.079 250.400,169.009 251.010,167.844 251.754 C 161.902 255.556,153.276 257.907,143.600 258.364 L 138.600 258.600 141.716 259.100 C 171.446 263.870,197.262 241.092,197.235 210.114 C 197.230 203.915,197.483 202.820,198.929 202.790 C 212.712 202.511,213.531 202.459,216.600 201.675 C 238.207 196.154,251.906 180.213,254.036 158.114 C 254.587 152.402,253.842 153.058,260.130 152.744 C 265.266 152.487,269.370 151.943,271.800 151.195 C 272.460 150.992,274.080 150.521,275.400 150.147 C 276.720 149.774,277.980 149.340,278.200 149.183 C 278.420 149.026,279.050 148.765,279.600 148.602 C 282.588 147.719,290.990 143.129,296.399 139.425 C 298.186 138.201,299.739 137.200,299.850 137.200 C 299.962 137.200,300.704 136.705,301.498 136.100 C 304.751 133.624,316.333 135.425,322.800 139.411 C 323.570 139.886,324.431 140.196,324.713 140.100 C 324.994 140.004,325.174 140.096,325.113 140.305 C 325.002 140.679,328.909 144.000,329.460 144.000 C 329.616 144.000,329.139 143.460,328.400 142.800 C 327.661 142.140,326.908 141.600,326.728 141.600 C 326.548 141.600,326.400 141.417,326.400 141.193 C 326.400 140.593,329.862 142.454,332.606 144.529 C 346.552 155.079,354.452 177.773,354.561 207.600 C 354.617 222.735,352.989 227.836,345.814 235.016 C 337.823 243.011,331.128 244.800,309.189 244.800 C 293.906 244.800,294.969 244.238,295.818 251.871 C 298.941 279.962,293.697 293.506,277.128 300.134 C 271.536 302.371,270.474 302.495,254.714 302.757 C 236.657 303.056,238.488 302.072,239.222 311.077 C 240.915 331.870,239.068 341.261,231.721 349.196 C 225.234 356.203,218.388 358.889,205.118 359.633 C 192.412 360.346,89.009 359.881,85.105 359.093 C 80.449 358.154,76.426 356.742,77.409 356.394 C 78.062 356.162,77.956 356.064,76.800 355.831 C 67.521 353.959,58.416 346.702,55.180 338.600 C 54.916 337.940,54.552 337.040,54.370 336.600 C 51.406 329.410,52.167 304.681,55.793 290.400 C 56.156 288.970,56.632 287.080,56.851 286.200 C 57.324 284.296,59.069 278.932,59.584 277.800 C 64.838 266.243,67.611 262.449,75.382 256.186 C 81.738 251.064,95.342 248.296,100.076 251.162 C 101.313 251.911,102.423 252.505,102.543 252.483 C 102.663 252.461,103.334 252.978,104.035 253.633 C 104.736 254.288,105.420 254.704,105.555 254.557 C 105.690 254.410,105.575 254.210,105.300 254.112 C 105.025 254.014,104.800 253.751,104.800 253.529 C 104.800 253.044,108.392 255.038,109.087 255.908 C 109.355 256.243,109.480 256.671,109.364 256.859 C 109.248 257.047,109.346 257.200,109.581 257.200 C 109.857 257.200,109.918 256.630,109.754 255.602 C 109.613 254.723,109.732 252.300,110.018 250.217 L 110.538 246.429 107.357 243.115 C 103.137 238.718,101.018 235.646,98.451 230.200 C 96.530 226.126,96.000 224.800,96.000 224.066 C 96.000 223.678,95.840 223.189,95.644 222.980 C 93.711 220.914,93.200 205.455,94.805 197.600 C 98.303 180.490,113.710 164.637,130.600 160.770 C 137.275 159.242,146.323 158.660,149.452 159.558 L 150.699 159.915 150.691 152.658 C 150.682 144.739,151.561 138.847,153.249 135.505 C 153.442 135.123,153.600 134.596,153.600 134.334 C 153.600 133.565,158.053 124.800,158.444 124.800 C 158.640 124.800,158.800 124.606,158.800 124.370 C 158.800 123.253,166.530 114.874,170.072 112.152 C 179.510 104.897,196.450 100.608,206.910 102.824 C 209.702 103.416,209.630 103.474,209.128 101.000 C 208.167 96.267,208.723 87.167,210.387 80.400 C 214.000 65.706,227.130 51.672,241.667 46.966 C 242.840 46.586,244.160 46.142,244.600 45.979 C 245.040 45.817,246.390 45.487,247.600 45.247 C 248.810 45.006,250.160 44.728,250.600 44.629 C 252.115 44.286,267.402 44.689,268.600 45.103 M297.021 63.000 C 297.833 63.990,298.570 64.800,298.661 64.800 C 298.974 64.800,296.199 61.231,295.873 61.216 C 295.693 61.207,296.210 62.010,297.021 63.000 M299.149 65.800 C 299.365 66.240,299.834 66.960,300.193 67.400 L 300.844 68.200 300.451 67.400 C 300.235 66.960,299.766 66.240,299.407 65.800 L 298.756 65.000 299.149 65.800 M305.195 78.381 C 305.404 79.111,305.686 79.819,305.820 79.954 C 306.196 80.329,305.544 77.852,305.155 77.427 C 304.968 77.222,304.985 77.651,305.195 78.381 M306.258 82.400 C 306.575 84.125,306.802 84.451,306.794 83.167 C 306.791 82.635,306.611 81.930,306.394 81.600 C 306.118 81.178,306.077 81.415,306.258 82.400 M307.376 93.600 C 307.377 97.899,307.496 100.246,307.660 99.200 C 308.018 96.907,308.013 90.800,307.652 88.200 C 307.486 87.007,307.374 89.185,307.376 93.600 M306.449 104.000 C 306.416 104.330,306.289 105.050,306.167 105.600 C 305.975 106.464,306.007 106.503,306.399 105.888 C 306.648 105.497,306.775 104.777,306.681 104.288 C 306.586 103.800,306.482 103.670,306.449 104.000 M236.050 117.700 C 240.073 121.898,246.400 132.022,246.400 134.261 C 246.400 134.564,246.563 135.123,246.763 135.505 C 247.407 136.738,248.399 140.455,248.428 141.746 C 248.444 142.436,248.623 143.360,248.827 143.800 C 249.106 144.401,249.139 144.271,248.962 143.275 L 248.725 141.950 250.263 142.231 C 251.108 142.385,252.217 142.667,252.726 142.856 C 254.165 143.390,255.173 143.238,253.878 142.682 C 252.969 142.292,252.568 141.644,251.773 139.281 C 248.781 130.389,242.512 121.380,235.978 116.584 C 233.303 114.621,233.318 114.850,236.050 117.700 M298.784 122.023 C 298.305 122.696,297.979 123.313,298.061 123.394 C 298.143 123.476,298.614 122.926,299.108 122.171 C 300.223 120.471,299.971 120.356,298.784 122.023 M292.200 129.503 C 289.780 131.851,288.340 133.387,289.000 132.915 C 290.196 132.060,297.154 125.185,296.791 125.216 C 296.686 125.225,294.620 127.154,292.200 129.503 M286.081 134.572 C 284.223 135.885,283.962 136.261,285.531 135.362 C 286.263 134.943,287.050 134.375,287.280 134.100 C 287.871 133.393,287.593 133.502,286.081 134.572 M270.600 141.600 C 270.096 141.817,270.022 141.944,270.400 141.944 C 270.730 141.944,271.360 141.789,271.800 141.600 C 272.304 141.383,272.378 141.256,272.000 141.256 C 271.670 141.256,271.040 141.411,270.600 141.600 M266.600 142.400 L 265.000 142.686 266.400 142.737 C 267.170 142.765,268.070 142.613,268.400 142.400 C 269.055 141.977,268.962 141.977,266.600 142.400 M262.705 143.083 C 263.202 143.179,263.922 143.175,264.305 143.075 C 264.687 142.975,264.280 142.896,263.400 142.901 C 262.520 142.905,262.207 142.987,262.705 143.083 M331.609 146.700 C 334.516 149.846,335.063 150.376,334.166 149.175 C 332.549 147.011,330.185 144.400,329.842 144.400 C 329.645 144.400,330.440 145.435,331.609 146.700 M336.000 152.182 C 336.000 152.282,336.450 153.028,337.000 153.838 C 338.208 155.618,338.337 155.240,337.167 153.347 C 336.406 152.116,336.000 151.710,336.000 152.182 M342.467 165.620 C 342.701 166.292,342.967 166.767,343.057 166.676 C 343.256 166.478,342.501 164.400,342.231 164.400 C 342.127 164.400,342.233 164.949,342.467 165.620 M344.244 171.000 C 344.573 172.471,344.802 172.790,344.794 171.767 C 344.791 171.345,344.605 170.730,344.382 170.400 C 344.085 169.962,344.048 170.124,344.244 171.000 M345.246 175.200 C 345.265 175.530,345.424 176.250,345.600 176.800 L 345.920 177.800 345.954 176.800 C 345.973 176.250,345.813 175.530,345.600 175.200 C 345.255 174.667,345.216 174.667,345.246 175.200 M347.493 187.800 C 347.613 189.120,347.776 190.275,347.855 190.367 C 348.151 190.707,347.931 186.970,347.610 186.200 C 347.408 185.717,347.362 186.351,347.493 187.800 M348.093 192.000 C 348.093 192.770,348.175 193.085,348.276 192.700 C 348.376 192.315,348.376 191.685,348.276 191.300 C 348.175 190.915,348.093 191.230,348.093 192.000 M348.581 205.000 C 348.596 213.492,348.673 215.065,348.943 212.361 C 349.137 210.411,349.129 205.734,348.924 201.561 L 348.562 194.200 348.581 205.000 M273.413 204.242 C 276.613 207.635,281.868 216.565,283.745 221.800 C 284.139 222.900,284.609 224.160,284.788 224.600 C 285.925 227.393,287.804 235.189,288.596 240.400 C 288.880 242.270,289.132 243.284,289.156 242.653 L 289.200 241.507 291.900 241.748 C 293.385 241.880,294.256 241.843,293.837 241.667 C 293.256 241.422,292.850 240.348,292.139 237.182 C 288.896 222.719,282.970 211.514,275.017 204.809 C 272.229 202.458,271.482 202.193,273.413 204.242 M344.519 226.498 C 344.292 226.994,343.426 228.300,342.593 229.400 C 341.760 230.500,341.464 231.059,341.935 230.642 C 342.967 229.728,345.379 226.045,345.116 225.783 C 345.014 225.681,344.745 226.002,344.519 226.498 M339.599 232.602 C 339.083 233.151,338.782 233.600,338.930 233.600 C 339.318 233.600,340.899 231.965,340.702 231.768 C 340.611 231.677,340.114 232.052,339.599 232.602 M337.000 235.050 C 336.281 235.662,336.134 235.905,336.633 235.657 C 337.366 235.293,338.741 233.976,338.349 234.014 C 338.267 234.022,337.660 234.488,337.000 235.050 M329.000 239.414 C 328.000 239.896,327.966 239.951,328.800 239.748 C 329.933 239.471,331.207 238.821,330.600 238.830 C 330.380 238.833,329.660 239.096,329.000 239.414 M325.800 240.400 C 325.029 240.731,325.031 240.745,325.876 240.772 C 326.358 240.787,326.864 240.620,327.000 240.400 C 327.292 239.927,326.901 239.927,325.800 240.400 M319.400 241.600 L 318.200 241.905 319.400 241.905 C 320.060 241.905,321.140 241.768,321.800 241.600 L 323.000 241.295 321.800 241.295 C 321.140 241.295,320.060 241.432,319.400 241.600 M289.677 248.800 C 289.667 249.350,289.803 250.610,289.980 251.600 L 290.300 253.400 290.303 251.800 C 290.304 250.920,290.168 249.660,290.000 249.000 C 289.723 247.913,289.693 247.894,289.677 248.800 M106.600 255.442 C 107.975 256.502,108.800 256.866,108.800 256.414 C 108.800 256.186,108.607 256.000,108.371 256.000 C 108.136 256.000,107.673 255.730,107.343 255.400 C 107.013 255.070,106.531 254.806,106.271 254.813 C 106.012 254.820,106.160 255.103,106.600 255.442 M290.718 263.200 C 290.824 266.610,290.976 269.475,291.055 269.567 C 291.317 269.868,291.128 261.451,290.823 259.200 C 290.654 257.958,290.609 259.700,290.718 263.200 M216.571 261.100 C 217.353 261.925,217.995 262.707,217.997 262.838 C 217.998 262.969,218.457 263.599,219.017 264.238 C 223.107 268.914,227.776 279.438,230.179 289.400 C 230.550 290.940,231.017 292.834,231.216 293.609 C 231.415 294.384,231.703 296.364,231.855 298.009 C 232.008 299.654,232.208 300.775,232.300 300.500 C 232.406 300.181,233.261 300.000,234.657 300.000 C 235.862 300.000,236.761 299.860,236.655 299.689 C 236.550 299.519,235.981 297.224,235.392 294.589 C 232.216 280.389,227.100 270.202,219.525 262.994 C 215.956 259.597,213.894 258.275,216.571 261.100 M290.049 274.000 C 290.016 274.330,289.889 275.050,289.767 275.600 C 289.575 276.464,289.607 276.503,289.999 275.888 C 290.248 275.497,290.375 274.777,290.281 274.288 C 290.186 273.800,290.082 273.670,290.049 274.000 M269.300 298.048 C 268.585 298.254,268.000 298.511,268.000 298.619 C 268.000 298.909,270.138 298.353,270.580 297.948 C 271.016 297.549,271.030 297.548,269.300 298.048 M264.800 299.200 C 263.416 299.491,263.414 299.495,264.600 299.541 C 265.260 299.567,266.070 299.413,266.400 299.200 C 267.066 298.770,266.845 298.770,264.800 299.200 M243.125 300.299 C 246.493 300.366,251.893 300.366,255.125 300.299 C 258.356 300.232,255.600 300.177,249.000 300.177 C 242.400 300.177,239.756 300.232,243.125 300.299 M233.103 308.400 C 233.217 310.050,233.376 311.475,233.455 311.567 C 233.733 311.887,233.518 307.392,233.208 306.400 C 233.031 305.836,232.986 306.707,233.103 308.400 M233.720 316.000 C 233.720 317.210,233.795 317.705,233.887 317.100 C 233.978 316.495,233.978 315.505,233.887 314.900 C 233.795 314.295,233.720 314.790,233.720 316.000 M233.260 330.467 C 233.227 331.054,233.096 331.864,232.970 332.267 C 232.752 332.960,232.765 332.961,233.195 332.290 C 233.446 331.899,233.577 331.089,233.486 330.490 L 233.320 329.400 233.260 330.467 M232.040 335.440 C 231.810 336.273,231.694 337.027,231.782 337.115 C 231.870 337.203,232.130 336.593,232.360 335.760 C 232.590 334.927,232.706 334.173,232.618 334.085 C 232.530 333.997,232.270 334.607,232.040 335.440 M226.400 345.800 C 225.883 346.350,225.627 346.794,225.830 346.787 C 226.172 346.776,227.821 344.800,227.488 344.800 C 227.406 344.800,226.917 345.250,226.400 345.800 M222.770 349.500 L 221.800 350.600 223.000 349.600 C 223.660 349.050,224.275 348.555,224.367 348.500 C 224.458 348.445,224.355 348.400,224.136 348.400 C 223.918 348.400,223.303 348.895,222.770 349.500 M212.500 354.848 C 211.785 355.054,211.200 355.311,211.200 355.419 C 211.200 355.709,213.338 355.153,213.780 354.748 C 214.216 354.349,214.230 354.348,212.500 354.848 M208.600 356.000 C 207.581 356.438,208.632 356.438,210.000 356.000 C 210.804 355.743,210.843 355.677,210.200 355.668 C 209.760 355.662,209.040 355.811,208.600 356.000 M79.862 356.900 C 80.093 357.274,204.743 357.246,205.685 356.872 C 206.062 356.722,177.864 356.600,143.023 356.600 C 108.182 356.600,79.760 356.735,79.862 356.900 " stroke="none" fill="#4b4b4b" fill-rule="evenodd"></path><path id="path1" d="M250.800 45.217 C 246.492 45.827,239.807 47.920,236.682 49.635 C 236.287 49.852,234.937 50.579,233.682 51.250 C 216.555 60.417,206.334 82.224,209.827 102.147 L 210.098 103.693 208.349 103.444 C 184.201 99.997,162.160 112.770,153.897 135.000 C 151.855 140.495,151.122 145.526,151.263 153.082 C 151.345 157.438,151.249 160.400,151.027 160.400 C 150.822 160.400,149.047 160.194,147.083 159.942 C 141.586 159.237,132.383 160.411,126.400 162.580 C 122.940 163.835,114.971 168.084,114.000 169.192 C 113.890 169.318,112.994 170.046,112.008 170.810 C 108.695 173.380,104.431 178.140,102.162 181.800 C 101.753 182.460,101.320 183.090,101.200 183.200 C 99.991 184.309,96.328 193.481,95.214 198.190 C 93.111 207.080,94.545 221.256,98.269 228.391 C 98.558 228.946,98.796 229.588,98.798 229.817 C 98.804 230.975,104.213 238.807,107.356 242.210 L 110.912 246.061 110.606 249.130 C 110.438 250.819,110.254 252.937,110.198 253.838 L 110.097 255.476 114.348 258.159 C 116.687 259.635,120.813 261.934,123.518 263.270 C 126.223 264.605,128.346 265.787,128.235 265.898 C 128.125 266.008,127.712 265.954,127.317 265.778 C 126.923 265.601,126.330 265.418,126.000 265.372 C 122.609 264.892,112.011 259.610,104.445 254.629 C 98.378 250.636,97.849 250.398,95.074 250.407 C 90.287 250.424,84.337 251.960,79.695 254.376 C 75.771 256.418,69.619 261.229,69.606 262.267 C 69.603 262.523,69.465 262.793,69.300 262.867 C 67.172 263.812,61.583 273.751,58.952 281.266 C 53.785 296.025,51.225 325.891,54.363 334.800 C 56.055 339.605,58.714 344.318,61.047 346.645 C 62.661 348.255,66.438 351.150,67.590 351.660 C 68.256 351.954,68.800 352.331,68.800 352.498 C 68.800 352.664,68.990 352.800,69.222 352.800 C 69.454 352.800,70.473 353.178,71.486 353.639 C 78.175 356.686,80.399 356.784,143.200 356.783 C 208.894 356.782,208.303 356.817,217.227 352.411 C 220.788 350.652,221.413 350.190,224.596 346.963 C 229.203 342.293,231.292 338.121,232.790 330.595 C 233.350 327.781,233.151 312.710,232.462 305.800 C 230.894 290.068,226.223 275.433,219.884 266.391 C 216.668 261.804,207.502 253.600,205.592 253.600 C 205.377 253.600,205.200 253.400,205.200 253.157 C 205.200 252.574,206.633 252.944,210.316 254.476 C 223.634 260.013,233.662 274.960,237.680 295.258 L 238.522 299.515 239.961 299.753 C 242.230 300.128,252.963 300.039,257.800 299.604 C 269.590 298.544,275.436 296.205,281.396 290.163 C 285.398 286.106,287.125 283.085,288.831 277.159 C 290.978 269.699,290.038 246.035,287.157 235.009 C 286.926 234.124,286.575 232.770,286.377 232.000 C 284.884 226.200,282.009 218.238,280.720 216.338 C 280.324 215.754,280.000 215.119,280.000 214.927 C 280.000 212.369,270.209 201.409,265.084 198.230 C 261.557 196.042,261.393 195.608,264.474 196.610 C 278.973 201.325,288.858 214.542,294.009 236.100 L 295.323 241.600 306.162 241.592 C 320.250 241.582,324.777 240.937,330.800 238.081 C 345.692 231.019,350.843 216.921,347.636 192.000 C 345.267 173.590,342.243 163.364,336.224 153.411 C 334.094 149.887,327.977 143.376,324.820 141.270 C 316.548 135.753,304.027 133.633,300.800 137.203 C 300.463 137.576,292.688 142.624,291.200 143.436 C 290.430 143.856,289.710 144.305,289.600 144.433 C 286.835 147.660,268.798 153.193,261.000 153.206 C 256.440 153.214,256.570 153.094,256.238 157.600 C 254.230 184.839,232.718 204.800,205.371 204.800 C 198.958 204.800,199.428 204.285,199.351 211.400 C 198.946 249.180,159.920 273.221,126.347 256.373 C 122.945 254.666,120.364 252.858,122.634 253.772 C 133.457 258.132,145.111 258.963,155.600 256.123 C 156.810 255.796,158.520 255.333,159.400 255.095 C 160.908 254.687,168.768 250.944,169.200 250.428 C 169.310 250.297,170.475 249.472,171.789 248.595 C 176.451 245.483,186.000 234.661,186.000 232.489 C 186.000 232.256,186.141 232.007,186.313 231.933 C 186.485 231.860,187.197 230.450,187.896 228.800 C 195.108 211.768,192.942 193.333,182.000 178.607 C 178.912 174.452,171.458 168.124,166.400 165.364 C 165.630 164.944,164.940 164.465,164.867 164.300 C 164.793 164.135,164.478 164.000,164.167 164.000 C 163.855 164.000,163.600 163.820,163.600 163.600 C 163.600 162.975,164.076 163.095,168.073 164.728 C 182.206 170.501,193.556 182.952,197.238 196.724 C 198.617 201.880,199.066 201.983,210.400 199.734 C 215.223 198.778,224.714 195.054,226.000 193.613 C 226.110 193.490,227.275 192.672,228.588 191.795 C 230.884 190.262,239.600 181.882,239.600 181.208 C 239.600 181.028,240.250 179.917,241.044 178.740 C 248.948 167.024,251.120 150.339,246.556 136.400 C 245.648 133.627,242.581 126.861,242.024 126.400 C 241.890 126.290,241.447 125.660,241.038 125.000 C 237.257 118.899,230.582 112.652,223.400 108.494 C 222.520 107.984,221.485 107.464,221.100 107.337 C 220.715 107.210,220.400 106.948,220.400 106.753 C 220.400 106.559,219.995 106.386,219.500 106.368 C 219.005 106.351,218.837 106.242,219.127 106.126 C 219.417 106.010,221.037 106.403,222.727 106.999 C 237.416 112.178,249.258 124.389,253.863 139.105 C 255.091 143.027,255.093 143.029,260.735 142.634 C 276.015 141.565,289.530 134.241,297.900 122.495 C 298.395 121.801,298.800 121.104,298.800 120.948 C 298.800 120.791,299.052 120.379,299.359 120.031 C 299.667 119.684,300.280 118.750,300.722 117.955 C 301.163 117.160,301.715 116.170,301.947 115.755 C 303.552 112.889,305.290 107.939,306.005 104.200 C 306.258 102.880,306.630 101.045,306.832 100.123 C 309.900 86.134,301.101 64.462,288.592 55.198 C 288.148 54.869,287.158 54.135,286.392 53.567 C 285.186 52.671,283.069 51.429,279.200 49.344 C 278.650 49.047,278.063 48.804,277.896 48.802 C 277.728 48.801,276.828 48.454,275.896 48.032 C 270.006 45.364,258.706 44.096,250.800 45.217 " stroke="none" fill="#fbfbfb" fill-rule="evenodd"></path><path id="path2" d="M286.400 52.363 C 286.400 52.574,286.775 52.865,287.233 53.011 C 291.315 54.306,304.800 72.371,304.800 76.544 C 304.800 76.817,304.961 77.211,305.158 77.420 C 305.505 77.789,305.823 78.986,307.011 84.400 C 309.848 97.325,306.087 113.283,297.643 124.152 C 292.687 130.532,279.929 140.000,276.288 140.000 C 275.998 140.000,275.589 140.150,275.380 140.332 C 275.171 140.515,273.830 140.976,272.400 141.356 C 270.970 141.736,269.260 142.231,268.600 142.456 C 266.289 143.245,254.852 143.380,251.955 142.654 C 248.592 141.810,248.760 141.762,248.980 143.500 C 249.085 144.325,249.378 146.738,249.631 148.862 C 250.151 153.207,250.245 153.300,253.758 152.904 L 255.474 152.710 255.285 149.759 C 255.011 145.489,254.981 145.508,261.364 145.815 C 307.400 148.030,331.482 92.050,298.122 60.373 C 293.788 56.258,286.400 51.209,286.400 52.363 M326.400 141.193 C 326.400 141.417,326.584 141.600,326.808 141.600 C 329.349 141.600,342.000 160.004,342.000 163.699 C 342.000 163.997,342.157 164.411,342.349 164.620 C 343.033 165.366,344.620 170.874,346.228 178.087 C 348.575 188.605,349.759 209.172,348.441 216.513 C 348.134 218.225,347.729 219.720,347.541 219.836 C 347.354 219.952,347.200 220.384,347.200 220.796 C 347.200 223.806,338.879 235.600,336.755 235.600 C 336.591 235.600,336.219 235.825,335.929 236.101 C 335.638 236.376,334.680 236.961,333.800 237.401 C 332.920 237.840,332.110 238.307,332.000 238.437 C 331.890 238.567,330.900 238.991,329.800 239.379 C 328.700 239.767,327.440 240.231,327.000 240.409 C 323.580 241.795,319.407 242.076,304.279 241.938 L 289.157 241.800 289.404 244.400 C 289.540 245.830,289.806 247.900,289.995 249.000 C 290.875 254.113,291.269 267.659,290.670 272.200 C 290.181 275.903,287.767 283.561,286.825 284.400 C 286.533 284.660,285.671 286.035,285.320 286.800 C 285.008 287.480,284.997 287.493,282.000 290.622 C 279.735 292.986,275.816 295.757,273.000 296.984 C 272.120 297.368,271.040 297.840,270.600 298.034 C 266.321 299.917,260.256 300.477,245.945 300.310 L 232.490 300.153 232.682 302.576 C 232.789 303.909,233.038 305.630,233.238 306.400 C 233.808 308.602,234.138 326.204,233.669 329.400 C 232.745 335.703,230.517 341.289,227.400 345.121 C 224.593 348.571,220.792 351.583,217.000 353.363 C 215.680 353.983,214.330 354.620,214.000 354.779 C 213.443 355.047,210.921 355.696,206.294 356.761 C 203.634 357.374,80.343 357.383,79.731 356.771 C 79.495 356.535,78.694 356.400,77.951 356.472 C 76.219 356.639,80.233 358.110,85.105 359.093 C 89.009 359.881,192.412 360.346,205.118 359.633 C 218.388 358.889,225.234 356.203,231.721 349.196 C 239.068 341.261,240.915 331.870,239.222 311.077 C 238.488 302.072,236.657 303.056,254.714 302.757 C 270.474 302.495,271.536 302.371,277.128 300.134 C 293.704 293.503,298.942 279.965,295.814 251.837 C 294.963 244.191,293.801 244.800,309.248 244.800 C 331.122 244.800,337.829 243.005,345.814 235.016 C 352.989 227.836,354.617 222.735,354.561 207.600 C 354.452 177.773,346.552 155.079,332.606 144.529 C 329.862 142.454,326.400 140.593,326.400 141.193 M192.478 201.542 C 192.652 203.034,194.359 203.581,195.831 202.617 C 197.123 201.770,196.600 201.275,193.888 200.780 C 192.414 200.510,192.361 200.538,192.478 201.542 M104.800 253.405 C 104.800 253.856,105.817 254.688,106.719 254.974 C 107.203 255.128,107.600 255.422,107.600 255.627 C 107.600 255.832,107.870 256.000,108.200 256.000 C 108.530 256.000,108.800 256.180,108.800 256.400 C 108.800 256.620,108.986 256.800,109.214 256.800 C 109.488 256.800,109.498 256.563,109.244 256.100 C 108.857 255.396,104.800 252.936,104.800 253.405 " stroke="none" fill="#161717" fill-rule="evenodd"></path><path id="path3" d="M248.900 45.076 C 249.285 45.176,249.915 45.176,250.300 45.076 C 250.685 44.975,250.370 44.893,249.600 44.893 C 248.830 44.893,248.515 44.975,248.900 45.076 M266.100 45.076 C 266.485 45.176,267.115 45.176,267.500 45.076 C 267.885 44.975,267.570 44.893,266.800 44.893 C 266.030 44.893,265.715 44.975,266.100 45.076 M244.600 46.000 C 244.308 46.473,244.699 46.473,245.800 46.000 C 246.571 45.669,246.569 45.655,245.724 45.628 C 245.242 45.613,244.736 45.780,244.600 46.000 M269.633 45.744 C 269.725 45.823,270.340 46.008,271.000 46.156 C 271.876 46.352,272.038 46.315,271.600 46.018 C 271.060 45.653,269.232 45.398,269.633 45.744 M241.400 47.014 C 240.400 47.496,240.366 47.551,241.200 47.348 C 242.333 47.071,243.607 46.421,243.000 46.430 C 242.780 46.433,242.060 46.696,241.400 47.014 M230.200 52.650 C 229.540 53.212,229.360 53.488,229.800 53.265 C 230.996 52.658,232.257 51.625,231.800 51.627 C 231.580 51.628,230.860 52.088,230.200 52.650 M224.067 57.900 L 219.743 62.200 223.771 58.416 C 225.987 56.334,228.064 54.399,228.386 54.116 C 228.708 53.832,228.841 53.600,228.681 53.600 C 228.521 53.600,226.444 55.535,224.067 57.900 M297.999 64.700 C 298.522 65.415,299.013 66.000,299.089 66.000 C 299.393 66.000,298.401 64.500,297.745 63.967 C 297.313 63.616,297.410 63.896,297.999 64.700 M215.414 68.235 C 215.041 68.804,214.805 69.338,214.889 69.422 C 214.973 69.507,215.358 69.041,215.744 68.388 C 216.606 66.928,216.348 66.809,215.414 68.235 M209.849 82.215 C 209.712 82.573,209.618 83.256,209.641 83.733 C 209.667 84.281,209.803 84.086,210.010 83.203 C 210.360 81.716,210.265 81.133,209.849 82.215 M208.924 89.400 C 208.926 90.720,209.001 91.212,209.090 90.493 C 209.179 89.774,209.177 88.694,209.086 88.093 C 208.995 87.492,208.922 88.080,208.924 89.400 M307.331 93.800 C 307.333 95.340,307.405 95.921,307.492 95.091 C 307.579 94.261,307.577 93.001,307.489 92.291 C 307.400 91.581,307.329 92.260,307.331 93.800 M208.682 95.800 C 208.799 98.000,208.964 99.875,209.048 99.967 C 209.306 100.249,209.139 96.322,208.794 94.000 C 208.559 92.410,208.527 92.909,208.682 95.800 M196.900 102.697 C 198.605 102.772,201.395 102.772,203.100 102.697 C 204.805 102.622,203.410 102.561,200.000 102.561 C 196.590 102.561,195.195 102.622,196.900 102.697 M188.400 103.600 C 187.596 103.857,187.557 103.923,188.200 103.932 C 188.640 103.938,189.360 103.789,189.800 103.600 C 190.819 103.162,189.768 103.162,188.400 103.600 M174.500 109.246 C 173.137 110.119,172.695 110.706,173.900 110.043 C 174.818 109.539,176.256 108.427,176.000 108.419 C 175.890 108.416,175.215 108.788,174.500 109.246 M171.400 111.200 C 170.740 111.637,170.380 111.992,170.600 111.988 C 171.001 111.982,173.176 110.423,172.800 110.412 C 172.690 110.408,172.060 110.763,171.400 111.200 M228.804 111.067 C 228.806 111.250,229.382 111.850,230.084 112.400 C 230.785 112.950,231.834 113.860,232.414 114.422 C 232.994 114.984,233.661 115.380,233.897 115.301 C 234.133 115.222,234.461 115.375,234.625 115.641 C 234.815 115.947,234.755 116.019,234.462 115.838 C 234.208 115.681,234.000 115.756,234.000 116.003 C 234.000 116.265,234.321 116.352,234.763 116.212 C 237.797 115.249,248.671 129.961,251.754 139.200 C 252.789 142.300,253.714 143.201,255.800 143.141 C 256.240 143.128,255.955 142.945,255.166 142.735 C 253.811 142.373,253.682 142.188,252.820 139.379 C 249.440 128.364,240.956 117.752,230.880 111.935 C 229.736 111.274,228.802 110.884,228.804 111.067 M165.911 115.900 C 163.938 117.825,161.766 120.120,161.084 121.000 C 160.402 121.880,161.330 121.031,163.146 119.113 C 164.962 117.195,167.273 114.900,168.281 114.013 C 169.288 113.126,169.974 112.400,169.805 112.400 C 169.636 112.400,167.883 113.975,165.911 115.900 M299.853 120.100 L 299.133 121.400 299.958 120.400 C 300.689 119.513,301.014 118.800,300.686 118.800 C 300.624 118.800,300.249 119.385,299.853 120.100 M238.341 120.700 C 239.071 121.635,239.754 122.400,239.861 122.400 C 240.173 122.400,238.503 120.181,237.726 119.564 C 237.335 119.254,237.612 119.765,238.341 120.700 M240.985 124.300 C 241.602 125.235,242.183 126.000,242.276 126.000 C 242.564 126.000,241.033 123.566,240.432 123.069 C 240.120 122.811,240.368 123.365,240.985 124.300 M245.667 133.220 C 245.901 133.892,246.167 134.367,246.257 134.276 C 246.456 134.078,245.701 132.000,245.431 132.000 C 245.327 132.000,245.433 132.549,245.667 133.220 M305.107 135.090 C 305.826 135.179,306.906 135.177,307.507 135.086 C 308.108 134.995,307.520 134.922,306.200 134.924 C 304.880 134.926,304.388 135.001,305.107 135.090 M311.400 135.600 C 311.840 135.789,312.560 135.938,313.000 135.932 C 313.643 135.923,313.604 135.857,312.800 135.600 C 311.432 135.162,310.381 135.162,311.400 135.600 M298.200 138.212 C 296.635 139.495,297.057 139.486,298.800 138.200 C 299.545 137.650,299.985 137.206,299.778 137.214 C 299.570 137.222,298.860 137.671,298.200 138.212 M152.046 138.867 C 152.021 139.234,151.896 139.864,151.770 140.267 C 151.552 140.962,151.563 140.963,151.997 140.287 C 152.248 139.896,152.373 139.266,152.273 138.887 C 152.111 138.268,152.088 138.266,152.046 138.867 M247.606 139.033 C 247.609 139.455,247.795 140.070,248.018 140.400 C 248.315 140.838,248.352 140.676,248.156 139.800 C 247.827 138.329,247.598 138.010,247.606 139.033 M295.354 140.068 C 293.729 141.291,293.263 141.773,294.200 141.260 C 295.240 140.691,297.072 139.220,296.754 139.209 C 296.619 139.204,295.989 139.591,295.354 140.068 M151.069 143.556 C 150.921 144.295,150.820 145.282,150.844 145.750 C 150.868 146.218,151.047 145.790,151.242 144.800 C 151.437 143.810,151.538 142.823,151.467 142.606 C 151.396 142.390,151.217 142.817,151.069 143.556 M290.300 143.227 C 289.475 143.663,288.800 144.108,288.800 144.218 C 288.800 144.327,289.520 144.049,290.400 143.600 C 291.280 143.151,292.000 142.697,292.000 142.592 C 292.000 142.330,291.997 142.331,290.300 143.227 M248.893 145.600 C 248.893 146.370,248.975 146.685,249.076 146.300 C 249.176 145.915,249.176 145.285,249.076 144.900 C 248.975 144.515,248.893 144.830,248.893 145.600 M278.900 148.812 C 277.561 149.351,277.811 149.624,279.200 149.140 C 279.860 148.910,280.400 148.649,280.400 148.561 C 280.400 148.324,279.913 148.405,278.900 148.812 M150.528 152.000 C 150.528 153.430,150.601 154.015,150.689 153.300 C 150.778 152.585,150.778 151.415,150.689 150.700 C 150.601 149.985,150.528 150.570,150.528 152.000 M334.002 149.622 C 334.001 149.745,334.450 150.455,335.000 151.200 C 335.550 151.945,335.994 152.385,335.986 152.178 C 335.970 151.776,334.005 149.245,334.002 149.622 M249.314 152.200 C 249.317 153.300,249.395 153.703,249.487 153.095 C 249.579 152.486,249.577 151.586,249.482 151.095 C 249.387 150.603,249.311 151.100,249.314 152.200 M271.600 151.218 C 271.162 151.515,271.324 151.552,272.200 151.356 C 273.671 151.027,273.990 150.798,272.967 150.806 C 272.545 150.809,271.930 150.995,271.600 151.218 M266.900 152.276 C 267.285 152.376,267.915 152.376,268.300 152.276 C 268.685 152.175,268.370 152.093,267.600 152.093 C 266.830 152.093,266.515 152.175,266.900 152.276 M255.100 153.076 C 254.715 153.176,254.400 153.586,254.400 153.987 C 254.400 174.280,241.423 193.085,222.800 199.779 C 215.542 202.388,214.922 202.466,198.929 202.790 C 197.483 202.820,197.230 203.915,197.235 210.114 C 197.260 239.175,175.567 260.571,147.200 259.463 C 139.232 259.152,136.897 258.506,143.400 258.413 C 146.040 258.375,148.510 258.221,148.888 258.072 C 149.267 257.922,146.927 257.800,143.688 257.800 C 140.450 257.800,136.270 257.679,134.400 257.530 L 131.000 257.261 133.833 258.200 C 166.228 268.945,200.491 242.791,198.272 209.010 C 197.911 203.513,197.800 203.600,205.170 203.600 C 232.424 203.600,253.104 184.467,255.104 157.400 L 255.400 153.400 259.000 153.176 L 262.600 152.951 259.200 152.922 C 257.330 152.906,255.485 152.975,255.100 153.076 M150.893 158.800 C 150.893 159.570,150.975 159.885,151.076 159.500 C 151.176 159.115,151.176 158.485,151.076 158.100 C 150.975 157.715,150.893 158.030,150.893 158.800 M248.655 159.455 C 248.513 160.486,248.474 161.408,248.569 161.502 C 248.663 161.596,248.865 160.839,249.018 159.818 C 249.171 158.798,249.210 157.876,249.104 157.771 C 248.998 157.665,248.796 158.423,248.655 159.455 M138.200 159.438 C 139.855 159.703,150.492 159.809,149.567 159.550 C 149.035 159.401,146.080 159.286,143.000 159.294 C 139.920 159.302,137.760 159.367,138.200 159.438 M132.200 160.400 C 131.181 160.838,132.232 160.838,133.600 160.400 C 134.404 160.143,134.443 160.077,133.800 160.068 C 133.360 160.062,132.640 160.211,132.200 160.400 M119.900 164.827 C 119.075 165.263,118.400 165.708,118.400 165.818 C 118.400 165.927,119.120 165.649,120.000 165.200 C 120.880 164.751,121.600 164.297,121.600 164.192 C 121.600 163.930,121.597 163.931,119.900 164.827 M247.646 164.467 C 247.621 164.834,247.496 165.464,247.370 165.867 C 247.152 166.562,247.163 166.563,247.597 165.887 C 247.848 165.496,247.973 164.866,247.873 164.487 C 247.711 163.868,247.688 163.866,247.646 164.467 M172.400 168.481 C 177.900 173.750,181.147 176.711,180.000 175.411 C 179.230 174.538,178.186 173.414,177.679 172.912 C 176.116 171.363,177.163 171.902,179.812 174.009 C 186.598 179.409,192.392 188.059,195.077 196.800 C 196.106 200.150,196.612 201.200,197.194 201.200 C 197.875 201.200,194.443 191.565,192.493 188.000 C 188.054 179.887,180.277 171.940,173.452 168.544 L 171.400 167.522 172.400 168.481 M245.579 170.655 C 245.358 171.236,245.252 171.785,245.343 171.876 C 245.433 171.967,245.699 171.492,245.933 170.820 C 246.453 169.328,246.139 169.182,245.579 170.655 M108.175 173.700 C 106.191 175.735,104.220 177.850,103.797 178.400 C 102.885 179.584,103.061 179.412,108.190 174.100 C 110.368 171.845,112.067 170.000,111.967 170.000 C 111.866 170.000,110.160 171.665,108.175 173.700 M242.553 176.900 C 241.176 179.236,241.086 179.435,241.787 178.600 C 242.600 177.632,243.300 176.400,243.038 176.400 C 242.933 176.400,242.715 176.625,242.553 176.900 M182.393 178.800 C 184.232 181.253,184.657 181.651,183.757 180.076 C 183.341 179.348,182.560 178.358,182.022 177.876 C 181.302 177.231,181.400 177.475,182.393 178.800 M102.093 180.700 C 101.057 182.196,100.721 182.800,100.923 182.800 C 101.017 182.800,101.570 182.080,102.153 181.200 C 103.336 179.412,103.284 178.979,102.093 180.700 M239.999 180.900 C 239.410 181.704,239.313 181.984,239.745 181.633 C 240.401 181.100,241.393 179.600,241.089 179.600 C 241.013 179.600,240.522 180.185,239.999 180.900 M236.629 185.052 C 235.325 186.510,232.895 188.781,231.229 190.099 C 227.928 192.710,227.491 193.096,228.400 192.602 C 230.450 191.488,235.960 186.527,238.065 183.900 C 239.924 181.581,239.249 182.122,236.629 185.052 M99.600 184.800 C 99.151 185.680,98.874 186.400,98.984 186.400 C 99.094 186.400,99.551 185.680,100.000 184.800 C 100.449 183.920,100.726 183.200,100.616 183.200 C 100.506 183.200,100.049 183.920,99.600 184.800 M95.464 194.700 C 94.969 196.525,94.808 197.768,95.139 197.200 C 95.534 196.525,96.068 194.000,95.817 194.000 C 95.727 194.000,95.569 194.315,95.464 194.700 M94.229 200.229 C 94.081 200.815,94.038 201.372,94.132 201.466 C 94.227 201.560,94.424 201.158,94.571 200.571 C 94.719 199.985,94.762 199.428,94.668 199.334 C 94.573 199.240,94.376 199.642,94.229 200.229 M270.934 202.287 C 272.658 204.034,274.224 205.714,274.413 206.020 C 274.602 206.326,274.853 206.480,274.971 206.363 C 275.089 206.245,274.482 205.395,273.624 204.474 C 271.522 202.220,272.116 202.363,275.017 204.809 C 282.971 211.515,288.896 222.719,292.141 237.188 C 293.038 241.189,294.386 243.610,293.785 240.142 C 290.556 221.504,281.018 205.675,269.600 200.003 L 267.800 199.109 270.934 202.287 M199.491 201.489 C 200.201 201.577,201.461 201.579,202.291 201.492 C 203.121 201.405,202.540 201.333,201.000 201.331 C 199.460 201.329,198.781 201.400,199.491 201.489 M192.101 203.000 C 192.105 203.880,192.187 204.193,192.283 203.695 C 192.379 203.198,192.375 202.478,192.275 202.095 C 192.175 201.713,192.096 202.120,192.101 203.000 M348.554 207.200 C 348.554 209.950,348.618 211.075,348.696 209.700 C 348.774 208.325,348.774 206.075,348.696 204.700 C 348.618 203.325,348.554 204.450,348.554 207.200 M93.748 208.800 C 93.748 211.110,93.814 212.055,93.895 210.900 C 93.976 209.745,93.976 207.855,93.895 206.700 C 93.814 205.545,93.748 206.490,93.748 208.800 M192.520 208.800 C 192.520 210.010,192.595 210.505,192.687 209.900 C 192.778 209.295,192.778 208.305,192.687 207.700 C 192.595 207.095,192.520 207.590,192.520 208.800 M192.109 214.800 C 192.109 215.790,192.187 216.195,192.282 215.700 C 192.378 215.205,192.378 214.395,192.282 213.900 C 192.187 213.405,192.109 213.810,192.109 214.800 M94.068 216.200 C 94.062 216.640,94.211 217.360,94.400 217.800 C 94.838 218.819,94.838 217.768,94.400 216.400 C 94.143 215.596,94.077 215.557,94.068 216.200 M282.867 220.420 C 283.101 221.092,283.367 221.567,283.457 221.476 C 283.656 221.278,282.901 219.200,282.631 219.200 C 282.527 219.200,282.633 219.749,282.867 220.420 M95.013 221.000 C 95.169 221.880,95.441 222.757,95.617 222.948 C 95.793 223.140,95.761 222.515,95.546 221.560 C 95.045 219.327,94.640 218.903,95.013 221.000 M191.049 220.215 C 190.912 220.573,190.815 221.166,190.834 221.533 C 190.853 221.900,191.027 221.669,191.221 221.020 C 191.598 219.758,191.465 219.133,191.049 220.215 M188.480 228.080 C 188.001 229.214,187.672 230.206,187.750 230.283 C 187.828 230.361,188.288 229.501,188.773 228.373 C 189.259 227.245,189.587 226.254,189.503 226.170 C 189.420 226.086,188.959 226.946,188.480 228.080 M98.000 229.349 C 98.000 229.781,99.589 232.800,99.816 232.800 C 99.926 232.800,99.630 232.035,99.159 231.100 C 98.232 229.261,98.000 228.911,98.000 229.349 M101.227 235.400 C 101.228 235.620,101.688 236.340,102.250 237.000 C 102.812 237.660,103.088 237.840,102.865 237.400 C 102.258 236.204,101.225 234.943,101.227 235.400 M104.697 240.200 C 105.598 241.300,107.291 243.100,108.459 244.200 C 109.948 245.602,109.696 245.243,107.616 243.000 C 103.465 238.523,102.807 237.892,104.697 240.200 M177.787 244.100 L 175.400 246.600 177.900 244.213 C 180.222 241.995,180.583 241.600,180.287 241.600 C 180.226 241.600,179.101 242.725,177.787 244.100 M300.300 241.899 C 303.655 241.966,309.145 241.966,312.500 241.899 C 315.855 241.832,313.110 241.778,306.400 241.778 C 299.690 241.778,296.945 241.832,300.300 241.899 M172.442 248.423 C 171.035 249.510,170.014 250.400,170.172 250.400 C 170.512 250.400,175.200 246.835,175.200 246.577 C 175.200 246.298,175.141 246.338,172.442 248.423 M93.400 250.006 C 91.270 250.247,91.414 250.273,94.688 250.240 C 96.717 250.219,98.067 250.079,97.688 249.929 C 96.917 249.623,96.760 249.626,93.400 250.006 M86.000 251.218 C 85.562 251.515,85.724 251.552,86.600 251.356 C 88.071 251.027,88.390 250.798,87.367 250.806 C 86.945 250.809,86.330 250.995,86.000 251.218 M109.724 253.800 C 109.726 255.120,109.801 255.612,109.890 254.893 C 109.979 254.174,109.977 253.094,109.886 252.493 C 109.795 251.892,109.722 252.480,109.724 253.800 M102.800 253.185 C 103.350 253.646,104.160 254.210,104.600 254.438 C 105.146 254.722,105.082 254.587,104.400 254.015 C 103.850 253.554,103.040 252.990,102.600 252.762 C 102.054 252.478,102.118 252.613,102.800 253.185 M290.120 255.200 C 290.120 256.410,290.195 256.905,290.287 256.300 C 290.378 255.695,290.378 254.705,290.287 254.100 C 290.195 253.495,290.120 253.990,290.120 255.200 M76.200 255.600 C 75.540 256.037,75.180 256.392,75.400 256.388 C 75.801 256.382,77.976 254.823,77.600 254.812 C 77.490 254.808,76.860 255.163,76.200 255.600 M157.200 256.000 C 156.376 256.264,156.341 256.326,157.000 256.354 C 157.440 256.373,158.070 256.213,158.400 256.000 C 159.101 255.547,158.614 255.547,157.200 256.000 M211.201 256.073 C 211.202 256.143,212.839 257.880,214.840 259.933 C 218.264 263.448,219.357 264.178,216.490 261.036 C 214.052 258.363,215.938 259.580,219.525 262.994 C 227.100 270.202,232.216 280.389,235.392 294.589 C 236.606 300.016,236.604 300.011,237.524 299.968 C 237.940 299.949,238.008 299.859,237.700 299.735 C 237.425 299.624,237.200 299.103,237.200 298.578 C 237.200 291.576,229.895 273.638,224.087 266.379 C 220.798 262.268,211.188 254.582,211.201 256.073 M73.322 257.829 L 72.200 258.858 73.500 257.954 C 74.215 257.457,74.800 256.993,74.800 256.925 C 74.800 256.609,74.358 256.880,73.322 257.829 M108.912 257.046 C 109.302 257.436,112.907 259.200,113.314 259.200 C 114.146 259.200,110.764 257.126,109.750 257.014 C 109.213 256.955,108.836 256.969,108.912 257.046 M290.553 265.400 C 290.553 268.040,290.618 269.068,290.697 267.684 C 290.775 266.301,290.774 264.141,290.695 262.884 C 290.616 261.628,290.552 262.760,290.553 265.400 M68.745 262.300 C 67.507 263.656,65.437 266.392,65.037 267.200 C 64.874 267.530,65.159 267.260,65.670 266.600 C 66.182 265.940,67.367 264.455,68.305 263.300 C 70.143 261.036,70.369 260.521,68.745 262.300 M218.800 264.149 C 218.800 264.316,219.285 265.116,219.878 265.927 C 221.289 267.856,221.798 268.392,221.278 267.400 C 220.672 266.246,218.800 263.790,218.800 264.149 M63.232 269.939 C 62.579 271.160,62.714 271.500,63.441 270.463 C 63.793 269.960,63.988 269.454,63.873 269.340 C 63.759 269.225,63.470 269.495,63.232 269.939 M59.179 278.655 C 58.958 279.236,58.852 279.785,58.943 279.876 C 59.033 279.967,59.299 279.492,59.533 278.820 C 60.053 277.328,59.739 277.182,59.179 278.655 M230.068 289.800 C 230.062 290.240,230.211 290.960,230.400 291.400 C 230.838 292.419,230.838 291.368,230.400 290.000 C 230.143 289.196,230.077 289.157,230.068 289.800 M55.050 293.250 C 54.717 294.917,55.040 295.240,55.400 293.600 C 55.552 292.909,55.593 292.259,55.491 292.158 C 55.389 292.056,55.191 292.547,55.050 293.250 M277.600 293.800 C 276.855 294.350,276.415 294.794,276.622 294.786 C 277.024 294.770,279.555 292.805,279.178 292.802 C 279.055 292.801,278.345 293.250,277.600 293.800 M231.062 294.600 C 231.196 295.480,231.372 296.275,231.453 296.367 C 231.756 296.710,231.529 294.568,231.181 293.800 C 230.929 293.242,230.893 293.485,231.062 294.600 M54.101 299.400 C 54.105 300.280,54.187 300.593,54.283 300.095 C 54.379 299.598,54.375 298.878,54.275 298.495 C 54.175 298.113,54.096 298.520,54.101 299.400 M232.493 304.000 C 232.493 304.770,232.575 305.085,232.676 304.700 C 232.776 304.315,232.776 303.685,232.676 303.300 C 232.575 302.915,232.493 303.230,232.493 304.000 M53.068 306.559 C 52.920 307.633,52.824 309.252,52.853 310.156 C 52.886 311.179,53.035 310.592,53.248 308.600 C 53.627 305.050,53.489 303.487,53.068 306.559 M233.337 314.600 C 233.339 316.360,233.409 317.030,233.493 316.089 C 233.578 315.149,233.577 313.709,233.491 312.889 C 233.405 312.070,233.336 312.840,233.337 314.600 M52.557 322.000 C 52.557 324.970,52.620 326.185,52.697 324.700 C 52.774 323.215,52.774 320.785,52.697 319.300 C 52.620 317.815,52.557 319.030,52.557 322.000 M233.750 322.200 C 233.751 324.620,233.816 325.558,233.896 324.285 C 233.976 323.012,233.975 321.032,233.894 319.885 C 233.814 318.738,233.749 319.780,233.750 322.200 M233.293 328.400 C 233.293 329.170,233.375 329.485,233.476 329.100 C 233.576 328.715,233.576 328.085,233.476 327.700 C 233.375 327.315,233.293 327.630,233.293 328.400 M53.819 335.001 C 53.975 335.660,54.257 336.368,54.445 336.573 C 54.632 336.778,54.615 336.349,54.405 335.619 C 53.918 333.918,53.444 333.419,53.819 335.001 M54.800 337.749 C 54.800 338.181,56.389 341.200,56.616 341.200 C 56.726 341.200,56.430 340.435,55.959 339.500 C 55.032 337.661,54.800 337.311,54.800 337.749 M61.400 347.600 C 62.928 349.140,64.269 350.400,64.379 350.400 C 64.489 350.400,63.328 349.140,61.800 347.600 C 60.272 346.060,58.931 344.800,58.821 344.800 C 58.711 344.800,59.872 346.060,61.400 347.600 M65.400 351.007 C 65.840 351.366,66.560 351.835,67.000 352.051 L 67.800 352.444 67.000 351.793 C 66.560 351.434,65.840 350.965,65.400 350.749 L 64.600 350.356 65.400 351.007 " stroke="none" fill="#8d8f91" fill-rule="evenodd"></path><path id="path4" d="M251.800 44.765 C 251.140 44.913,253.210 44.972,256.400 44.895 C 263.881 44.714,264.874 44.493,258.200 44.494 C 255.340 44.494,252.460 44.616,251.800 44.765 M247.200 45.600 C 246.396 45.857,246.357 45.923,247.000 45.932 C 247.440 45.938,248.160 45.789,248.600 45.600 C 249.619 45.162,248.568 45.162,247.200 45.600 M266.433 45.347 C 266.525 45.428,267.320 45.604,268.200 45.738 C 269.315 45.907,269.558 45.871,269.000 45.619 C 268.232 45.271,266.090 45.044,266.433 45.347 M242.800 46.818 C 242.362 47.115,242.524 47.152,243.400 46.956 C 244.871 46.627,245.190 46.398,244.167 46.406 C 243.745 46.409,243.130 46.595,242.800 46.818 M271.633 46.544 C 271.725 46.623,272.340 46.808,273.000 46.956 C 273.876 47.152,274.038 47.115,273.600 46.818 C 273.060 46.453,271.232 46.198,271.633 46.544 M275.000 47.509 C 275.220 47.713,276.210 48.191,277.200 48.570 C 278.190 48.950,278.820 49.095,278.600 48.891 C 278.380 48.687,277.390 48.209,276.400 47.830 C 275.410 47.450,274.780 47.305,275.000 47.509 M238.600 48.429 C 237.720 48.852,237.450 49.086,238.000 48.949 C 239.133 48.667,241.212 47.625,240.600 47.646 C 240.380 47.653,239.480 48.006,238.600 48.429 M235.265 49.992 C 233.602 50.920,233.307 51.202,234.260 50.951 C 234.937 50.774,237.262 49.199,236.800 49.232 C 236.690 49.240,235.999 49.581,235.265 49.992 M279.800 49.518 C 280.020 49.747,281.280 50.513,282.600 51.221 C 283.920 51.929,284.820 52.325,284.600 52.103 C 284.380 51.880,283.120 51.114,281.800 50.400 C 280.480 49.686,279.580 49.290,279.800 49.518 M285.200 52.546 C 285.200 52.656,285.740 53.130,286.400 53.600 C 287.060 54.070,287.600 54.364,287.600 54.254 C 287.600 54.144,287.060 53.670,286.400 53.200 C 285.740 52.730,285.200 52.436,285.200 52.546 M227.321 55.150 C 226.044 56.223,224.460 57.705,223.800 58.443 C 223.140 59.181,223.590 58.887,224.800 57.790 C 226.010 56.692,227.720 55.217,228.600 54.511 C 229.480 53.805,230.074 53.221,229.921 53.213 C 229.767 53.206,228.597 54.078,227.321 55.150 M288.000 54.766 C 288.000 55.005,288.186 55.200,288.414 55.200 C 288.642 55.200,290.487 56.768,292.514 58.684 C 295.504 61.510,295.709 61.655,293.600 59.454 C 290.586 56.307,288.000 54.142,288.000 54.766 M220.966 61.300 C 219.132 63.302,218.255 64.400,218.489 64.400 C 218.607 64.400,219.549 63.410,220.582 62.200 C 222.628 59.806,222.883 59.207,220.966 61.300 M298.000 65.200 C 298.470 65.860,298.944 66.400,299.054 66.400 C 299.164 66.400,298.870 65.860,298.400 65.200 C 297.930 64.540,297.456 64.000,297.346 64.000 C 297.236 64.000,297.530 64.540,298.000 65.200 M217.350 65.900 C 216.167 67.525,215.802 68.352,216.777 67.200 C 217.678 66.134,218.519 64.800,218.289 64.800 C 218.213 64.800,217.790 65.295,217.350 65.900 M299.549 67.400 C 299.765 67.840,300.234 68.560,300.593 69.000 L 301.244 69.800 300.851 69.000 C 300.635 68.560,300.166 67.840,299.807 67.400 L 299.156 66.600 299.549 67.400 M214.380 70.840 C 213.702 72.183,213.214 73.347,213.294 73.428 C 213.375 73.508,214.015 72.410,214.717 70.987 C 215.418 69.564,215.907 68.400,215.802 68.400 C 215.697 68.400,215.057 69.498,214.380 70.840 M212.587 74.600 C 212.484 74.930,212.312 75.479,212.205 75.821 C 212.097 76.162,212.166 76.345,212.357 76.227 C 212.548 76.109,212.791 75.559,212.897 75.006 C 213.106 73.913,212.890 73.630,212.587 74.600 M211.400 77.600 C 211.250 78.073,211.217 78.550,211.327 78.660 C 211.437 78.770,211.650 78.473,211.800 78.000 C 211.950 77.527,211.983 77.050,211.873 76.940 C 211.763 76.830,211.550 77.127,211.400 77.600 M210.600 80.400 C 210.448 81.091,210.407 81.741,210.509 81.842 C 210.611 81.944,210.809 81.453,210.950 80.750 C 211.283 79.083,210.960 78.760,210.600 80.400 M305.668 81.600 C 305.688 82.639,306.318 84.346,306.332 83.400 C 306.338 82.960,306.189 82.240,306.000 81.800 C 305.789 81.310,305.661 81.232,305.668 81.600 M209.400 86.000 C 209.246 86.910,209.204 87.738,209.307 87.840 C 209.410 87.943,209.613 87.277,209.760 86.360 C 209.907 85.443,209.948 84.615,209.853 84.520 C 209.758 84.424,209.554 85.090,209.400 86.000 M306.487 85.400 C 306.491 85.840,306.632 86.740,306.800 87.400 C 307.074 88.478,307.106 88.498,307.113 87.600 C 307.117 87.050,306.976 86.150,306.800 85.600 C 306.549 84.816,306.481 84.773,306.487 85.400 M208.920 93.600 C 208.920 94.810,208.995 95.305,209.087 94.700 C 209.178 94.095,209.178 93.105,209.087 92.500 C 208.995 91.895,208.920 92.390,208.920 93.600 M306.622 100.622 C 306.472 101.425,306.428 102.162,306.526 102.260 C 306.624 102.357,306.827 101.781,306.978 100.978 C 307.128 100.175,307.172 99.438,307.074 99.340 C 306.976 99.243,306.773 99.819,306.622 100.622 M209.461 101.272 L 209.682 103.143 208.341 103.308 L 207.000 103.472 208.500 103.536 C 210.130 103.606,210.402 102.817,209.580 100.400 C 209.343 99.703,209.307 99.967,209.461 101.272 M189.800 103.610 C 189.266 103.847,189.598 103.886,190.800 103.727 C 191.790 103.596,192.675 103.424,192.767 103.344 C 193.114 103.043,190.564 103.272,189.800 103.610 M186.600 104.400 C 185.581 104.838,186.632 104.838,188.000 104.400 C 188.804 104.143,188.843 104.077,188.200 104.068 C 187.760 104.062,187.040 104.211,186.600 104.400 M219.500 106.282 C 219.995 106.378,220.400 106.602,220.400 106.781 C 220.400 106.960,220.715 107.210,221.100 107.337 C 221.930 107.610,224.596 109.117,225.989 110.101 C 227.077 110.870,227.784 111.022,227.403 110.405 C 227.260 110.173,227.430 110.114,227.813 110.260 C 228.237 110.423,228.313 110.607,228.029 110.782 C 227.771 110.942,228.667 111.926,230.210 113.178 C 231.651 114.347,232.912 115.222,233.012 115.121 C 233.112 115.021,232.610 114.473,231.897 113.904 C 227.737 110.584,227.793 110.033,232.027 112.643 C 241.681 118.596,249.357 128.471,252.822 139.400 C 253.868 142.697,253.584 142.241,254.800 142.577 C 255.350 142.728,255.595 142.706,255.345 142.526 C 255.095 142.347,254.336 140.542,253.658 138.515 C 248.764 123.882,237.353 112.215,222.876 107.044 C 221.268 106.470,219.648 106.025,219.276 106.054 C 218.865 106.088,218.952 106.177,219.500 106.282 M176.200 108.627 C 175.540 108.970,174.820 109.435,174.600 109.661 C 174.380 109.887,174.965 109.677,175.900 109.195 C 176.835 108.713,177.600 108.247,177.600 108.160 C 177.600 107.920,177.500 107.953,176.200 108.627 M168.800 113.637 L 167.000 115.271 168.694 114.007 C 170.187 112.892,171.092 111.998,170.724 112.001 C 170.656 112.002,169.790 112.738,168.800 113.637 M302.779 113.855 C 302.558 114.436,302.452 114.985,302.543 115.076 C 302.633 115.167,302.899 114.692,303.133 114.020 C 303.653 112.528,303.339 112.382,302.779 113.855 M301.446 116.586 C 301.091 117.128,300.800 117.685,300.800 117.824 C 300.800 117.963,300.395 118.641,299.900 119.330 C 299.405 120.019,298.820 120.880,298.600 121.243 C 298.380 121.606,297.969 122.284,297.686 122.751 C 297.403 123.218,297.251 123.600,297.347 123.600 C 297.584 123.600,300.061 119.842,301.366 117.500 C 302.486 115.491,302.536 114.923,301.446 116.586 M161.733 120.700 C 159.250 123.760,156.461 128.000,156.930 128.000 C 157.017 128.000,157.865 126.785,158.815 125.300 C 159.764 123.815,161.246 121.745,162.108 120.700 C 162.969 119.655,163.584 118.800,163.474 118.800 C 163.364 118.800,162.581 119.655,161.733 120.700 M238.151 120.800 C 238.725 121.570,239.781 123.140,240.497 124.289 C 241.214 125.437,241.942 126.382,242.115 126.389 C 242.489 126.402,239.708 122.311,238.179 120.600 L 237.107 119.400 238.151 120.800 M296.400 124.249 C 296.400 124.459,295.195 125.974,293.722 127.616 C 292.249 129.257,291.636 130.060,292.359 129.400 C 294.344 127.589,296.934 124.401,296.651 124.117 C 296.513 123.979,296.400 124.039,296.400 124.249 M287.000 133.435 L 285.800 134.466 287.100 133.606 C 287.815 133.133,288.400 132.668,288.400 132.573 C 288.400 132.273,288.231 132.378,287.000 133.435 M306.500 135.491 C 307.325 135.578,308.675 135.578,309.500 135.491 C 310.325 135.405,309.650 135.334,308.000 135.334 C 306.350 135.334,305.675 135.405,306.500 135.491 M313.800 136.400 C 314.240 136.589,314.870 136.744,315.200 136.744 C 315.578 136.744,315.504 136.617,315.000 136.400 C 314.560 136.211,313.930 136.056,313.600 136.056 C 313.222 136.056,313.296 136.183,313.800 136.400 M152.600 138.000 C 152.448 138.691,152.407 139.341,152.509 139.442 C 152.611 139.544,152.809 139.053,152.950 138.350 C 153.283 136.683,152.960 136.360,152.600 138.000 M296.063 139.981 C 291.843 142.796,290.243 144.034,292.845 142.471 C 295.635 140.795,300.902 137.200,300.553 137.211 C 300.359 137.216,298.338 138.463,296.063 139.981 M151.849 140.615 C 151.712 140.973,151.616 141.656,151.636 142.133 C 151.662 142.747,151.785 142.608,152.059 141.656 C 152.457 140.272,152.294 139.458,151.849 140.615 M247.858 141.200 C 248.175 142.925,248.402 143.251,248.394 141.967 C 248.391 141.435,248.211 140.730,247.994 140.400 C 247.718 139.978,247.677 140.215,247.858 141.200 M324.400 141.000 C 325.145 141.550,325.855 141.999,325.978 141.998 C 326.355 141.995,323.824 140.030,323.422 140.014 C 323.215 140.006,323.655 140.450,324.400 141.000 M330.000 145.800 C 332.090 148.000,334.028 150.160,334.306 150.600 C 334.584 151.040,334.550 150.860,334.231 150.200 C 333.647 148.990,330.169 145.218,327.593 143.000 C 326.827 142.340,327.910 143.600,330.000 145.800 M258.800 142.800 L 256.200 143.062 258.400 143.108 C 259.610 143.133,261.320 143.005,262.200 142.823 C 264.184 142.413,262.742 142.403,258.800 142.800 M284.400 146.722 C 281.650 148.119,279.840 149.135,280.377 148.980 C 281.222 148.735,289.108 144.926,289.567 144.540 C 290.422 143.821,288.575 144.601,284.400 146.722 M150.959 152.000 C 150.959 155.190,151.021 156.495,151.097 154.900 C 151.173 153.305,151.173 150.695,151.097 149.100 C 151.021 147.505,150.959 148.810,150.959 152.000 M248.958 152.200 C 248.958 155.280,249.021 156.487,249.097 154.882 C 249.173 153.278,249.173 150.758,249.096 149.282 C 249.019 147.807,248.957 149.120,248.958 152.200 M269.400 152.000 C 268.381 152.438,269.432 152.438,270.800 152.000 C 271.604 151.743,271.643 151.677,271.000 151.668 C 270.560 151.662,269.840 151.811,269.400 152.000 M263.100 153.082 C 263.595 153.178,264.405 153.178,264.900 153.082 C 265.395 152.987,264.990 152.909,264.000 152.909 C 263.010 152.909,262.605 152.987,263.100 153.082 M255.420 153.700 C 255.335 153.975,255.151 155.910,255.011 158.000 C 253.251 184.307,232.164 203.600,205.170 203.600 C 197.800 203.600,197.911 203.513,198.272 209.010 C 200.490 242.782,166.091 269.033,133.833 258.187 L 131.000 257.235 133.800 257.403 C 136.355 257.557,136.443 257.538,134.800 257.189 C 129.844 256.134,125.266 254.849,122.634 253.776 C 120.337 252.839,122.957 254.672,126.347 256.373 C 159.920 273.221,198.946 249.180,199.351 211.400 C 199.428 204.285,198.958 204.800,205.371 204.800 C 232.718 204.800,254.230 184.839,256.238 157.600 C 256.392 155.510,256.717 153.668,256.959 153.506 C 257.212 153.338,257.011 153.210,256.487 153.206 C 255.986 153.203,255.505 153.425,255.420 153.700 M337.601 155.688 C 337.600 156.058,339.233 159.200,339.428 159.200 C 339.509 159.200,339.457 158.885,339.313 158.500 C 338.959 157.555,337.603 155.327,337.601 155.688 M151.200 159.373 C 151.200 159.692,150.711 160.021,150.100 160.113 C 149.076 160.269,149.090 160.284,150.300 160.340 C 151.353 160.389,151.600 160.248,151.600 159.600 C 151.600 159.160,151.510 158.800,151.400 158.800 C 151.290 158.800,151.200 159.058,151.200 159.373 M137.900 159.882 C 138.395 159.978,139.205 159.978,139.700 159.882 C 140.195 159.787,139.790 159.709,138.800 159.709 C 137.810 159.709,137.405 159.787,137.900 159.882 M146.705 159.883 C 147.202 159.979,147.922 159.975,148.305 159.875 C 148.687 159.775,148.280 159.696,147.400 159.701 C 146.520 159.705,146.207 159.787,146.705 159.883 M339.634 159.800 C 339.634 160.020,339.978 160.830,340.400 161.600 C 340.822 162.370,341.166 162.820,341.166 162.600 C 341.166 162.380,340.822 161.570,340.400 160.800 C 339.978 160.030,339.634 159.580,339.634 159.800 M134.900 160.276 C 135.285 160.376,135.915 160.376,136.300 160.276 C 136.685 160.175,136.370 160.093,135.600 160.093 C 134.830 160.093,134.515 160.175,134.900 160.276 M129.800 161.200 C 128.781 161.638,129.832 161.638,131.200 161.200 C 132.004 160.943,132.043 160.877,131.400 160.868 C 130.960 160.862,130.240 161.011,129.800 161.200 M247.850 162.450 C 247.517 164.117,247.840 164.440,248.200 162.800 C 248.352 162.109,248.393 161.459,248.291 161.358 C 248.189 161.256,247.991 161.747,247.850 162.450 M163.600 163.600 C 163.600 163.820,163.870 164.000,164.200 164.000 C 164.530 164.000,164.800 164.180,164.800 164.400 C 164.800 164.620,164.977 164.800,165.194 164.800 C 165.411 164.800,166.470 165.342,167.547 166.005 C 168.625 166.668,169.779 167.106,170.113 166.978 C 170.446 166.850,170.837 166.936,170.980 167.168 C 171.143 167.431,170.969 167.504,170.521 167.362 C 169.714 167.106,170.409 167.766,172.866 169.590 C 173.600 170.134,175.747 172.024,177.638 173.790 C 179.528 175.555,178.898 174.862,176.238 172.250 C 171.553 167.649,171.465 167.532,173.452 168.532 C 182.962 173.319,192.345 184.801,195.776 195.851 C 197.421 201.150,197.448 201.200,198.636 201.200 C 199.682 201.200,199.683 201.196,198.875 200.500 C 198.398 200.091,197.719 198.523,197.238 196.724 C 193.556 182.952,182.206 170.501,168.073 164.728 C 164.076 163.095,163.600 162.975,163.600 163.600 M115.700 167.646 C 114.337 168.519,113.895 169.106,115.100 168.443 C 116.018 167.939,117.456 166.827,117.200 166.819 C 117.090 166.816,116.415 167.188,115.700 167.646 M111.984 170.453 L 110.200 172.071 112.000 170.759 C 112.990 170.036,113.875 169.390,113.967 169.323 C 114.058 169.255,114.051 169.118,113.950 169.017 C 113.850 168.916,112.965 169.562,111.984 170.453 M243.509 174.356 C 242.470 176.470,241.905 177.840,242.254 177.400 C 243.030 176.424,245.763 170.821,245.552 170.641 C 245.468 170.570,244.549 172.241,243.509 174.356 M104.542 177.900 C 102.624 180.315,100.735 183.201,101.081 183.189 C 101.256 183.182,101.986 182.237,102.703 181.089 C 103.419 179.940,104.477 178.415,105.054 177.700 C 105.631 176.985,106.020 176.400,105.918 176.400 C 105.817 176.400,105.198 177.075,104.542 177.900 M240.475 179.584 C 239.494 180.911,239.278 181.850,240.242 180.600 C 240.978 179.645,241.684 178.400,241.489 178.400 C 241.413 178.400,240.957 178.933,240.475 179.584 M345.656 179.200 C 345.656 179.530,345.811 180.160,346.000 180.600 C 346.217 181.104,346.344 181.178,346.344 180.800 C 346.344 180.470,346.189 179.840,346.000 179.400 C 345.783 178.896,345.656 178.822,345.656 179.200 M183.409 180.626 C 183.781 181.301,184.441 182.291,184.876 182.826 L 185.667 183.800 184.991 182.574 C 184.619 181.899,183.959 180.909,183.524 180.374 L 182.733 179.400 183.409 180.626 M234.628 186.530 C 230.508 190.743,230.402 191.059,234.333 187.409 C 235.903 185.952,239.471 181.957,239.137 182.030 C 239.062 182.047,237.033 184.072,234.628 186.530 M186.682 186.189 C 187.273 187.393,187.823 188.311,187.905 188.229 C 188.084 188.049,186.067 184.000,185.798 184.000 C 185.694 184.000,186.092 184.985,186.682 186.189 M346.869 186.000 C 346.856 186.550,346.995 187.720,347.177 188.600 C 347.389 189.626,347.516 189.841,347.531 189.200 C 347.544 188.650,347.405 187.480,347.223 186.600 C 347.011 185.574,346.884 185.359,346.869 186.000 M227.856 192.224 C 226.787 192.981,226.077 193.600,226.278 193.600 C 226.668 193.600,230.000 191.242,230.000 190.965 C 230.000 190.714,229.942 190.748,227.856 192.224 M96.040 193.840 C 95.810 194.673,95.694 195.427,95.782 195.515 C 95.870 195.603,96.130 194.993,96.360 194.160 C 96.590 193.327,96.706 192.573,96.618 192.485 C 96.530 192.397,96.270 193.007,96.040 193.840 M347.877 194.600 C 348.000 195.920,348.168 197.075,348.250 197.167 C 348.518 197.464,348.315 194.634,347.980 193.400 C 347.765 192.611,347.730 193.022,347.877 194.600 M190.244 195.000 C 190.573 196.471,190.802 196.790,190.794 195.767 C 190.791 195.345,190.605 194.730,190.382 194.400 C 190.085 193.962,190.048 194.124,190.244 195.000 M262.000 196.115 C 262.000 196.226,263.383 197.179,265.072 198.232 C 266.762 199.285,269.499 201.458,271.153 203.059 C 275.222 206.999,275.178 206.559,271.090 202.434 C 267.833 199.148,267.818 199.123,269.600 200.006 C 280.994 205.651,290.566 221.524,293.777 240.100 C 293.937 241.027,294.258 241.600,294.618 241.600 C 295.382 241.600,295.408 241.803,293.827 235.379 C 288.901 215.359,279.849 202.670,266.800 197.492 C 263.947 196.360,262.000 195.801,262.000 196.115 M95.049 197.415 C 94.912 197.773,94.815 198.366,94.834 198.733 C 94.853 199.100,95.027 198.869,95.221 198.220 C 95.598 196.958,95.465 196.333,95.049 197.415 M191.073 198.400 C 191.204 199.390,191.376 200.275,191.456 200.367 C 191.757 200.714,191.528 198.164,191.190 197.400 C 190.953 196.866,190.914 197.198,191.073 198.400 M215.300 198.448 C 214.585 198.654,214.000 198.911,214.000 199.019 C 214.000 199.309,216.138 198.753,216.580 198.348 C 217.016 197.949,217.030 197.948,215.300 198.448 M211.200 199.600 C 210.396 199.857,210.357 199.923,211.000 199.932 C 211.440 199.938,212.160 199.789,212.600 199.600 C 213.619 199.162,212.568 199.162,211.200 199.600 M206.800 200.400 L 205.000 200.680 206.600 200.700 C 207.480 200.711,208.650 200.576,209.200 200.400 C 210.463 199.995,209.402 199.995,206.800 200.400 M94.256 201.284 C 94.121 201.788,94.036 203.370,94.067 204.800 C 94.124 207.400,94.124 207.400,94.398 204.000 C 94.688 200.404,94.656 199.793,94.256 201.284 M192.151 208.800 C 192.151 211.330,192.216 212.365,192.296 211.100 C 192.375 209.835,192.375 207.765,192.296 206.500 C 192.216 205.235,192.151 206.270,192.151 208.800 M275.703 208.110 C 276.416 209.051,277.329 210.266,277.730 210.810 C 278.452 211.788,278.452 211.785,277.770 210.600 C 276.624 208.611,275.019 206.418,274.703 206.409 C 274.539 206.404,274.989 207.170,275.703 208.110 M94.040 212.833 C 94.062 214.245,94.217 215.850,94.384 216.400 C 94.551 216.950,94.599 215.870,94.490 214.000 C 94.254 209.934,93.984 209.236,94.040 212.833 M279.859 214.700 C 279.960 215.085,280.400 215.850,280.836 216.400 C 281.568 217.322,281.563 217.267,280.775 215.700 C 279.865 213.892,279.559 213.558,279.859 214.700 M347.850 215.250 C 347.709 215.953,347.669 216.602,347.759 216.692 C 347.850 216.783,348.048 216.291,348.200 215.600 C 348.352 214.909,348.393 214.259,348.291 214.158 C 348.189 214.056,347.991 214.547,347.850 215.250 M191.260 218.067 C 191.227 218.654,191.096 219.464,190.970 219.867 C 190.752 220.560,190.765 220.561,191.195 219.890 C 191.446 219.499,191.577 218.689,191.486 218.090 L 191.320 217.000 191.260 218.067 M282.067 219.220 C 282.301 219.892,282.567 220.367,282.657 220.276 C 282.856 220.078,282.101 218.000,281.831 218.000 C 281.727 218.000,281.833 218.549,282.067 219.220 M94.856 218.800 C 94.856 219.130,95.011 219.760,95.200 220.200 C 95.417 220.704,95.544 220.778,95.544 220.400 C 95.544 220.070,95.389 219.440,95.200 219.000 C 94.983 218.496,94.856 218.422,94.856 218.800 M346.067 221.980 C 345.833 222.651,345.727 223.200,345.831 223.200 C 346.101 223.200,346.856 221.122,346.657 220.924 C 346.567 220.833,346.301 221.308,346.067 221.980 M190.229 222.229 C 190.081 222.815,190.038 223.372,190.132 223.466 C 190.227 223.560,190.424 223.158,190.571 222.571 C 190.719 221.985,190.762 221.428,190.668 221.334 C 190.573 221.240,190.376 221.642,190.229 222.229 M344.554 225.300 C 344.187 226.015,343.360 227.410,342.715 228.400 C 341.716 229.935,341.692 230.026,342.554 229.015 C 343.640 227.743,345.790 224.000,345.435 224.000 C 345.317 224.000,344.921 224.585,344.554 225.300 M96.629 225.200 C 96.776 225.750,97.064 226.470,97.267 226.800 C 97.525 227.217,97.557 227.095,97.371 226.400 C 97.224 225.850,96.936 225.130,96.733 224.800 C 96.475 224.383,96.443 224.505,96.629 225.200 M284.856 226.400 C 284.856 226.730,285.011 227.360,285.200 227.800 C 285.417 228.304,285.544 228.378,285.544 228.000 C 285.544 227.670,285.389 227.040,285.200 226.600 C 284.983 226.096,284.856 226.022,284.856 226.400 M97.614 227.820 C 97.622 228.029,97.899 228.650,98.231 229.200 L 98.833 230.200 98.572 229.200 C 98.299 228.157,97.589 227.133,97.614 227.820 M285.862 230.000 C 285.998 230.770,286.262 231.670,286.448 232.000 C 286.652 232.361,286.688 232.043,286.538 231.200 C 286.402 230.430,286.138 229.530,285.952 229.200 C 285.748 228.839,285.712 229.157,285.862 230.000 M338.800 232.891 C 337.370 234.241,336.740 234.968,337.400 234.506 C 338.561 233.694,341.948 230.382,341.581 230.418 C 341.482 230.427,340.230 231.540,338.800 232.891 M185.491 233.510 C 184.920 234.709,184.906 234.844,185.420 234.200 C 186.362 233.020,186.872 231.999,186.514 232.010 C 186.341 232.015,185.881 232.690,185.491 233.510 M286.856 234.000 C 286.856 234.330,287.011 234.960,287.200 235.400 C 287.417 235.904,287.544 235.978,287.544 235.600 C 287.544 235.270,287.389 234.640,287.200 234.200 C 286.983 233.696,286.856 233.622,286.856 234.000 M101.149 234.600 C 101.365 235.040,101.834 235.760,102.193 236.200 L 102.844 237.000 102.451 236.200 C 102.235 235.760,101.766 235.040,101.407 234.600 L 100.756 233.800 101.149 234.600 M182.781 237.700 C 181.826 239.075,179.325 241.909,177.223 243.998 C 175.120 246.087,174.120 247.226,175.000 246.529 C 177.810 244.305,182.201 239.418,184.190 236.300 C 185.534 234.194,184.504 235.217,182.781 237.700 M334.800 236.000 C 334.250 236.430,333.586 236.786,333.324 236.791 C 333.062 236.796,332.746 236.963,332.623 237.163 C 332.217 237.819,333.834 237.163,335.028 236.186 C 336.429 235.042,336.231 234.880,334.800 236.000 M103.113 237.815 C 103.346 238.263,105.071 240.259,106.945 242.250 C 110.248 245.759,110.358 245.938,110.503 248.035 L 110.652 250.200 110.726 248.034 C 110.799 245.908,110.757 245.822,108.494 243.434 C 107.225 242.095,105.400 240.100,104.438 239.000 C 103.476 237.900,102.880 237.367,103.113 237.815 M330.006 238.423 C 329.240 238.850,328.807 239.200,329.045 239.200 C 329.556 239.200,332.000 238.018,332.000 237.771 C 332.000 237.450,331.400 237.646,330.006 238.423 M288.087 240.000 C 288.083 240.550,288.224 241.450,288.400 242.000 C 288.831 243.344,288.831 241.892,288.400 240.200 C 288.126 239.122,288.094 239.102,288.087 240.000 M289.309 248.400 C 289.309 249.390,289.387 249.795,289.482 249.300 C 289.578 248.805,289.578 247.995,289.482 247.500 C 289.387 247.005,289.309 247.410,289.309 248.400 M171.056 249.024 C 169.987 249.781,169.277 250.400,169.478 250.400 C 169.868 250.400,173.200 248.042,173.200 247.765 C 173.200 247.514,173.142 247.548,171.056 249.024 M89.000 250.800 C 87.930 251.072,87.908 251.105,88.800 251.105 C 89.350 251.105,90.340 250.968,91.000 250.800 C 92.070 250.528,92.092 250.495,91.200 250.495 C 90.650 250.495,89.660 250.632,89.000 250.800 M80.200 253.637 C 77.622 254.924,71.523 259.200,72.265 259.200 C 72.511 259.200,73.587 258.476,74.656 257.592 C 75.725 256.707,78.130 255.183,80.000 254.205 C 83.792 252.221,83.954 251.763,80.200 253.637 M101.600 252.546 C 101.600 252.656,102.140 253.130,102.800 253.600 C 103.460 254.070,104.000 254.364,104.000 254.254 C 104.000 254.144,103.460 253.670,102.800 253.200 C 102.140 252.730,101.600 252.436,101.600 252.546 M205.200 253.157 C 205.200 253.400,205.377 253.600,205.592 253.600 C 206.629 253.600,211.016 256.925,214.777 260.562 C 217.455 263.150,218.368 263.882,217.323 262.600 C 216.425 261.500,214.670 259.635,213.423 258.456 C 210.654 255.839,210.725 255.646,213.812 257.395 C 221.474 261.733,227.963 270.000,232.386 281.056 C 234.007 285.108,237.200 296.748,237.200 298.603 C 237.200 299.650,238.449 300.249,239.868 299.882 C 240.388 299.748,240.302 299.679,239.570 299.646 C 238.585 299.602,238.501 299.407,237.688 295.300 C 233.662 274.957,223.645 260.018,210.316 254.476 C 206.633 252.944,205.200 252.574,205.200 253.157 M158.456 255.259 C 157.717 255.472,157.187 255.720,157.279 255.812 C 157.481 256.014,160.400 255.237,160.400 254.981 C 160.400 254.746,160.082 254.791,158.456 255.259 M110.000 256.153 C 110.000 256.457,110.855 257.265,111.900 257.948 C 114.467 259.627,113.446 259.529,110.110 257.776 C 108.620 256.992,107.844 256.707,108.386 257.142 C 110.808 259.085,123.509 265.019,126.000 265.372 C 126.330 265.418,126.923 265.601,127.317 265.778 C 127.712 265.954,128.125 266.008,128.235 265.898 C 128.346 265.787,126.223 264.606,123.518 263.272 C 120.813 261.939,116.739 259.667,114.465 258.224 C 109.899 255.327,110.000 255.374,110.000 256.153 M154.600 256.400 C 154.096 256.617,154.022 256.744,154.400 256.744 C 154.730 256.744,155.360 256.589,155.800 256.400 C 156.304 256.183,156.378 256.056,156.000 256.056 C 155.670 256.056,155.040 256.211,154.600 256.400 M150.200 257.200 L 148.600 257.486 150.000 257.503 C 150.770 257.513,151.850 257.376,152.400 257.200 C 153.685 256.788,152.499 256.788,150.200 257.200 M290.166 264.400 C 290.166 268.470,290.225 270.135,290.298 268.100 C 290.371 266.065,290.371 262.735,290.298 260.700 C 290.225 258.665,290.166 260.330,290.166 264.400 M67.406 264.476 C 65.688 266.786,66.006 266.533,68.678 263.466 C 69.222 262.843,69.580 262.247,69.475 262.142 C 69.370 262.037,68.439 263.087,67.406 264.476 M220.000 266.600 C 220.681 267.590,221.328 268.400,221.438 268.400 C 221.548 268.400,221.081 267.590,220.400 266.600 C 219.719 265.610,219.072 264.800,218.962 264.800 C 218.852 264.800,219.319 265.610,220.000 266.600 M65.067 267.500 C 64.072 269.155,62.790 271.714,63.114 271.400 C 63.648 270.882,65.684 267.200,65.436 267.200 C 65.332 267.200,65.166 267.335,65.067 267.500 M224.036 273.400 C 224.036 273.620,224.470 274.610,225.000 275.600 C 225.530 276.590,225.964 277.220,225.964 277.000 C 225.964 276.780,225.530 275.790,225.000 274.800 C 224.470 273.810,224.036 273.180,224.036 273.400 M60.867 275.580 C 60.633 276.251,60.527 276.800,60.631 276.800 C 60.901 276.800,61.656 274.722,61.457 274.524 C 61.367 274.433,61.101 274.908,60.867 275.580 M289.246 275.667 C 289.221 276.034,289.096 276.664,288.970 277.067 C 288.752 277.762,288.763 277.763,289.197 277.087 C 289.448 276.696,289.573 276.066,289.473 275.687 C 289.311 275.068,289.288 275.066,289.246 275.667 M226.229 278.400 C 226.376 278.950,226.664 279.670,226.867 280.000 C 227.125 280.417,227.157 280.295,226.971 279.600 C 226.824 279.050,226.536 278.330,226.333 278.000 C 226.075 277.583,226.043 277.705,226.229 278.400 M228.056 283.600 C 228.056 283.930,228.211 284.560,228.400 285.000 C 228.617 285.504,228.744 285.578,228.744 285.200 C 228.744 284.870,228.589 284.240,228.400 283.800 C 228.183 283.296,228.056 283.222,228.056 283.600 M56.833 287.033 C 56.575 288.059,56.439 288.972,56.531 289.064 C 56.622 289.156,56.909 288.392,57.167 287.367 C 57.425 286.341,57.561 285.428,57.469 285.336 C 57.378 285.244,57.091 286.008,56.833 287.033 M229.268 287.800 C 229.262 288.240,229.411 288.960,229.600 289.400 C 230.038 290.419,230.038 289.368,229.600 288.000 C 229.343 287.196,229.277 287.157,229.268 287.800 M281.600 290.200 C 280.628 291.190,279.923 292.000,280.033 292.000 C 280.143 292.000,281.028 291.190,282.000 290.200 C 282.972 289.210,283.677 288.400,283.567 288.400 C 283.457 288.400,282.572 289.210,281.600 290.200 M55.800 291.200 C 55.648 291.891,55.607 292.541,55.709 292.642 C 55.811 292.744,56.009 292.253,56.150 291.550 C 56.483 289.883,56.160 289.560,55.800 291.200 M54.999 295.059 C 54.860 295.907,54.647 297.140,54.526 297.800 C 54.405 298.460,54.423 298.890,54.565 298.755 C 54.884 298.452,55.646 293.913,55.417 293.684 C 55.326 293.593,55.138 294.212,54.999 295.059 M272.800 296.200 C 271.810 296.730,271.142 297.172,271.316 297.182 C 271.741 297.206,274.800 295.634,274.800 295.392 C 274.800 295.127,274.817 295.120,272.800 296.200 M231.287 297.200 C 231.283 297.750,231.424 298.650,231.600 299.200 C 232.031 300.544,232.031 299.092,231.600 297.400 C 231.326 296.322,231.294 296.302,231.287 297.200 M257.600 299.600 L 255.000 299.862 257.200 299.908 C 258.410 299.933,260.120 299.805,261.000 299.623 C 262.984 299.213,261.542 299.203,257.600 299.600 M53.818 302.618 C 53.665 303.639,53.622 304.555,53.722 304.655 C 53.822 304.755,54.029 304.002,54.182 302.982 C 54.335 301.961,54.378 301.045,54.278 300.945 C 54.178 300.845,53.971 301.598,53.818 302.618 M232.514 307.000 C 232.517 308.100,232.595 308.503,232.687 307.895 C 232.779 307.286,232.777 306.386,232.682 305.895 C 232.587 305.403,232.511 305.900,232.514 307.000 M232.893 310.400 C 232.893 311.170,232.975 311.485,233.076 311.100 C 233.176 310.715,233.176 310.085,233.076 309.700 C 232.975 309.315,232.893 309.630,232.893 310.400 M52.972 320.600 C 52.972 325.660,53.029 327.675,53.099 325.077 C 53.169 322.480,53.168 318.340,53.098 315.877 C 53.028 313.415,52.971 315.540,52.972 320.600 M233.354 322.400 C 233.354 325.150,233.418 326.275,233.496 324.900 C 233.574 323.525,233.574 321.275,233.496 319.900 C 233.418 318.525,233.354 319.650,233.354 322.400 M232.622 331.022 C 232.472 331.825,232.428 332.562,232.526 332.660 C 232.624 332.757,232.827 332.181,232.978 331.378 C 233.128 330.575,233.172 329.838,233.074 329.740 C 232.976 329.643,232.773 330.219,232.622 331.022 M54.629 336.400 C 54.776 336.950,55.064 337.670,55.267 338.000 C 55.525 338.417,55.557 338.295,55.371 337.600 C 55.224 337.050,54.936 336.330,54.733 336.000 C 54.475 335.583,54.443 335.705,54.629 336.400 M57.413 342.300 C 57.717 342.905,58.513 344.030,59.182 344.800 C 60.154 345.918,60.070 345.697,58.766 343.700 C 57.027 341.037,56.511 340.503,57.413 342.300 M225.178 346.650 C 224.420 347.447,223.098 348.617,222.240 349.250 C 221.382 349.882,220.885 350.400,221.136 350.400 C 221.589 350.400,227.203 345.239,226.778 345.213 C 226.657 345.206,225.937 345.852,225.178 346.650 M63.000 348.762 C 64.103 349.963,65.600 351.057,65.600 350.662 C 65.600 350.571,64.745 349.812,63.700 348.976 C 61.870 347.512,61.844 347.504,63.000 348.762 M66.600 351.420 C 67.780 352.362,68.801 352.872,68.790 352.514 C 68.785 352.341,68.110 351.881,67.290 351.491 C 66.091 350.920,65.956 350.906,66.600 351.420 M81.600 356.410 C 83.410 356.743,87.877 356.926,87.567 356.654 C 87.475 356.574,85.690 356.412,83.600 356.294 C 80.995 356.146,80.366 356.182,81.600 356.410 M201.200 356.400 L 198.600 356.662 200.800 356.701 C 202.010 356.723,203.810 356.597,204.800 356.420 C 207.104 356.010,205.175 356.000,201.200 356.400 " stroke="none" fill="#acacac" fill-rule="evenodd"></path></g></svg>